<svg width="15" height="15" viewBox="0 0 15 15" fill="none" xmlns="http://www.w3.org/2000/svg">
<path d="M12.575 3.4L1.675 14.3C1.49167 14.4833 1.25833 14.575 0.975 14.575C0.691667 14.575 0.458333 14.4833 0.275 14.3C0.0916663 14.1167 0 13.8833 0 13.6C0 13.3167 0.0916663 13.0833 0.275 12.9L11.175 2H5.575C5.29167 2 5.05433 1.904 4.863 1.712C4.67167 1.52 4.57567 1.28267 4.575 1C4.57433 0.717333 4.67033 0.48 4.863 0.288C5.05567 0.0960001 5.293 0 5.575 0H13.575C13.8583 0 14.096 0.0960001 14.288 0.288C14.48 0.48 14.5757 0.717333 14.575 1V9C14.575 9.28333 14.479 9.521 14.287 9.713C14.095 9.905 13.8577 10.0007 13.575 10C13.2923 9.99933 13.055 9.90333 12.863 9.712C12.671 9.52067 12.575 9.28333 12.575 9V3.4Z" fill="white"/>
</svg>
