<svg width="24" height="24" viewBox="0 0 24 24" fill="none" xmlns="http://www.w3.org/2000/svg">
<path fill-rule="evenodd" clip-rule="evenodd" d="M12.5 20.472L13.5 19.5C14 19 13.8643 19.21 14.5 19C15.144 19 15.36 19.006 16.21 18.991C17.466 18.97 18.253 18.893 18.913 18.619C19.5196 18.3677 20.0708 17.9994 20.5351 17.5351C20.9994 17.0708 21.3677 16.5196 21.619 15.913C22 14.995 22 13.83 22 11.5V10.5C22 7.227 22 5.59 21.263 4.388C20.851 3.7152 20.2856 3.14945 19.613 2.737C18.41 2 16.773 2 13.5 2H10.5C7.227 2 5.59 2 4.388 2.737C3.7152 3.14904 3.14945 3.71445 2.737 4.387C2 5.59 2 7.228 2 10.5V11.5C2 13.83 2 14.995 2.38 15.913C2.63139 16.5197 2.99984 17.071 3.46432 17.5353C3.92879 17.9996 4.48018 18.3678 5.087 18.619C5.747 18.893 6.534 18.969 7.79 18.991C8.64 19.006 9.065 19.013 9.403 19.21C9.74 19.406 9.5 19.5 9 20.472L8 22C8.483 22.816 11.5 21.5 12.5 20.472ZM16 12.5C16.2652 12.5 16.8125 12.1875 17 12C17.1875 11.8125 17.5 11.2652 17.5 11C17.5 10.7348 17.1875 10.1875 17 10C16.8125 9.81246 16.2652 9.5 16 9.5C15.7348 9.5 15.1875 9.81246 15 10C14.8125 10.1875 14.5 10.7348 14.5 11C14.5 11.2652 14.8125 11.8125 15 12C15.1875 12.1875 15.7348 12.5 16 12.5ZM13.5 11C13.5 11.2652 13.1875 11.8125 13 12C12.8125 12.1875 12.2652 12.5 12 12.5C11.7348 12.5 11.1875 12.1875 11 12C10.8125 11.8125 10.5 11.2652 10.5 11C10.5 10.7348 10.8125 10.1875 11 10C11.1875 9.81246 11.7348 9.5 12 9.5C12.2652 9.5 12.8125 9.81246 13 10C13.1875 10.1875 13.5 10.7348 13.5 11ZM8 12.5C8.26522 12.5 8.81246 12.1875 9 12C9.18754 11.8125 9.5 11.2652 9.5 11C9.5 10.7348 9.18754 10.1875 9 10C8.81246 9.81246 8.26522 9.5 8 9.5C7.73478 9.5 7.18754 9.81246 7 10C6.81246 10.1875 6.5 10.7348 6.5 11C6.5 11.2652 6.81246 11.8125 7 12C7.18754 12.1875 7.73478 12.5 8 12.5Z" fill="white"/>
</svg>
