<svg width="10" height="14" viewBox="0 0 10 14" fill="none" xmlns="http://www.w3.org/2000/svg">
<path d="M0 13.2493C0 13.0504 0.0790175 12.8597 0.21967 12.719C0.360322 12.5784 0.551088 12.4993 0.75 12.4993H9.25C9.44891 12.4993 9.63968 12.5784 9.78033 12.719C9.92098 12.8597 10 13.0504 10 13.2493C10 13.4483 9.92098 13.639 9.78033 13.7797C9.63968 13.9203 9.44891 13.9993 9.25 13.9993H0.75C0.551088 13.9993 0.360322 13.9203 0.21967 13.7797C0.0790175 13.639 0 13.4483 0 13.2493ZM0.97 3.71934C0.896313 3.788 0.837211 3.8708 0.796219 3.9628C0.755227 4.0548 0.733185 4.15411 0.731408 4.25482C0.729632 4.35552 0.748156 4.45555 0.785877 4.54894C0.823598 4.64233 0.879743 4.72716 0.950962 4.79838C1.02218 4.8696 1.10701 4.92574 1.2004 4.96346C1.29379 5.00118 1.39382 5.01971 1.49452 5.01793C1.59523 5.01615 1.69454 4.99411 1.78654 4.95312C1.87854 4.91213 1.96134 4.85303 2.03 4.77934L4.25 2.55934V10.2493C4.25 10.4483 4.32902 10.639 4.46967 10.7797C4.61032 10.9203 4.80109 10.9993 5 10.9993C5.19891 10.9993 5.38968 10.9203 5.53033 10.7797C5.67098 10.639 5.75 10.4483 5.75 10.2493V2.55934L7.97 4.77934C8.03866 4.85303 8.12146 4.91213 8.21346 4.95312C8.30546 4.99411 8.40478 5.01615 8.50548 5.01793C8.60618 5.01971 8.70621 5.00118 8.7996 4.96346C8.89299 4.92574 8.97782 4.8696 9.04904 4.79838C9.12026 4.72716 9.1764 4.64233 9.21412 4.54894C9.25184 4.45555 9.27037 4.35552 9.26859 4.25482C9.26682 4.15411 9.24477 4.0548 9.20378 3.9628C9.16279 3.8708 9.10369 3.788 9.03 3.71934L5.53 0.21934C5.38937 0.0788896 5.19875 0 5 0C4.80125 0 4.61063 0.0788896 4.47 0.21934L0.97 3.71934Z" fill="white"/>
</svg>
