<svg width="14" height="14" viewBox="0 0 14 14" fill="none" xmlns="http://www.w3.org/2000/svg">
<path d="M0.5 8C0.5 8.92826 0.710714 9.8185 1.08579 10.4749C1.46086 11.1313 1.96957 11.5 2.5 11.5C3.03043 11.5 3.53914 11.1313 3.91421 10.4749C4.28929 9.8185 4.5 8.92826 4.5 8C4.5 7.07174 4.28929 6.1815 3.91421 5.52513C3.53914 4.86875 3.03043 4.5 2.5 4.5C1.96957 4.5 1.46086 4.86875 1.08579 5.52513C0.710714 6.1815 0.5 7.07174 0.5 8Z" stroke="white" stroke-linecap="round" stroke-linejoin="round"/>
<path d="M2.5 4.5H11.5C12.605 4.5 13.5 6.067 13.5 8C13.5 9.933 12.605 11.5 11.5 11.5H2.5M8.5 7H13.301M4.5 9.5H7M7.5 4.5L5.5 2.5" stroke="white" stroke-linecap="round" stroke-linejoin="round"/>
</svg>
