<svg width="24" height="24" viewBox="0 0 24 24" fill="none" xmlns="http://www.w3.org/2000/svg">
<mask id="mask0_277_18" style="mask-type:luminance" maskUnits="userSpaceOnUse" x="1" y="1" width="22" height="22">
<path d="M9.142 21.5855C7.48808 21.0915 5.99017 20.1779 4.794 18.9335C5.17884 18.477 5.41874 17.9161 5.483 17.3226C5.54726 16.729 5.43296 16.1298 5.15473 15.6016C4.87649 15.0733 4.44698 14.6401 3.92115 14.3574C3.39532 14.0747 2.79709 13.9553 2.203 14.0145C2.06736 13.3515 1.99934 12.6766 2 12C2 10.955 2.16 9.94695 2.458 8.99995H2.5C3.00988 9.00011 3.51139 8.87032 3.95717 8.62282C4.40295 8.37533 4.7783 8.0183 5.04777 7.58545C5.31724 7.15259 5.47194 6.6582 5.49726 6.14895C5.52259 5.6397 5.4177 5.1324 5.1925 4.67495C6.36517 3.58387 7.78277 2.79045 9.326 2.36145C9.57719 2.85465 9.95993 3.26875 10.4319 3.55793C10.9038 3.8471 11.4465 4.00009 12 3.99995C12.5535 4.00009 13.0962 3.8471 13.5682 3.55793C14.0401 3.26875 14.4228 2.85465 14.674 2.36145C16.2172 2.79045 17.6348 3.58387 18.8075 4.67495C18.5807 5.13561 18.4759 5.64677 18.5031 6.15953C18.5304 6.67228 18.6888 7.16946 18.9632 7.60346C19.2376 8.03747 19.6188 8.39378 20.0703 8.63829C20.5219 8.8828 21.0286 9.00733 21.542 8.99995C21.8464 9.97083 22.0008 10.9825 22 12C22 12.69 21.93 13.364 21.797 14.015C21.2029 13.9558 20.6047 14.0752 20.0789 14.3579C19.553 14.6406 19.1235 15.0738 18.8453 15.6021C18.5671 16.1303 18.4528 16.7295 18.517 17.3231C18.5813 17.9166 18.8212 18.4775 19.206 18.934C18.0098 20.1782 16.5119 21.0917 14.858 21.5855C14.6638 20.9801 14.2824 20.452 13.7687 20.0774C13.2551 19.7028 12.6358 19.5009 12 19.5009C11.3643 19.5009 10.7449 19.7028 10.2313 20.0774C9.71765 20.452 9.33623 20.9801 9.142 21.5855Z" fill="white" stroke="white" stroke-width="2" stroke-linejoin="round"/>
<path d="M12 15.5C12.4596 15.5 12.9148 15.4095 13.3394 15.2336C13.764 15.0577 14.1499 14.7999 14.4749 14.4749C14.7999 14.1499 15.0577 13.764 15.2336 13.3394C15.4095 12.9148 15.5 12.4596 15.5 12C15.5 11.5404 15.4095 11.0852 15.2336 10.6606C15.0577 10.236 14.7999 9.85013 14.4749 9.52513C14.1499 9.20012 13.764 8.94231 13.3394 8.76642C12.9148 8.59053 12.4596 8.5 12 8.5C11.0717 8.5 10.1815 8.86875 9.52513 9.52513C8.86875 10.1815 8.5 11.0717 8.5 12C8.5 12.9283 8.86875 13.8185 9.52513 14.4749C10.1815 15.1313 11.0717 15.5 12 15.5Z" fill="black" stroke="black" stroke-width="2" stroke-linejoin="round"/>
</mask>
<g mask="url(#mask0_277_18)">
<path d="M0 0H24V24H0V0Z" fill="white"/>
</g>
</svg>
