<svg width="20" height="20" viewBox="0 0 20 20" fill="none" xmlns="http://www.w3.org/2000/svg">
<path d="M16.5 10C16.5 6.40937 13.5906 3.5 10 3.5C6.40937 3.5 3.5 6.40937 3.5 10C3.5 13.5906 6.40937 16.5 10 16.5C13.5906 16.5 16.5 13.5906 16.5 10ZM2 10C2 5.58125 5.58125 2 10 2C14.4187 2 18 5.58125 18 10C18 14.4187 14.4187 18 10 18C5.58125 18 2 14.4187 2 10ZM7.54063 11.9812C8.00938 12.4687 8.825 13 10 13C11.175 13 11.9906 12.4687 12.4594 11.9812C12.7469 11.6812 13.2219 11.6719 13.5188 11.9594C13.8156 12.2469 13.8281 12.7219 13.5406 13.0188C12.85 13.7375 11.6656 14.5 10 14.5C8.33438 14.5 7.15 13.7375 6.45937 13.0188C6.17187 12.7188 6.18125 12.2438 6.48125 11.9594C6.78125 11.675 7.25625 11.6812 7.54063 11.9812ZM6.5 8.5C6.5 7.94687 6.94687 7.5 7.5 7.5C8.05313 7.5 8.5 7.94687 8.5 8.5C8.5 9.05313 8.05313 9.5 7.5 9.5C6.94687 9.5 6.5 9.05313 6.5 8.5ZM12.5 7.5C13.0531 7.5 13.5 7.94687 13.5 8.5C13.5 9.05313 13.0531 9.5 12.5 9.5C11.9469 9.5 11.5 9.05313 11.5 8.5C11.5 7.94687 11.9469 7.5 12.5 7.5Z" fill="white"/>
</svg>
