<svg width="300" height="300" viewBox="0 0 300 300" fill="none" xmlns="http://www.w3.org/2000/svg">
<rect width="300" height="300" rx="70" fill="url(#paint0_linear_1512_96)"/>
<path fill-rule="evenodd" clip-rule="evenodd" d="M148.753 52.8713C167.435 52.9342 176.107 55.7758 191.163 67.0765C200.748 54.4525 231.007 44.6635 232.271 61.5898C232.231 74.2928 234.924 85.0363 237.978 96.7654C241.614 111.215 245.745 127.307 245.672 150.604C245.496 206.244 201.091 247.955 148.637 247.778C96.1368 247.602 55.1396 203.542 55.3106 149.448C55.3069 123.87 65.1438 99.336 82.6625 81.2296C100.181 63.1233 123.95 52.9244 148.753 52.8713ZM147.516 199.68C173.057 201.126 193.024 182.958 197.523 154.38C201.234 130.72 194.871 101.87 189.376 100.352C186.741 99.6868 180.088 105.196 175.938 109.447C169.114 104.552 161.158 101.598 152.874 100.885C140.152 100.211 127.681 104.712 118.143 113.419C108.604 122.126 102.758 134.344 101.863 147.449C101.324 160.581 105.805 173.407 114.343 183.167C122.881 192.926 134.793 198.839 147.516 199.634L147.516 199.68Z" fill="white"/>
<path d="M229.273 280.205L239.67 217.136H258.761L248.364 280.205H229.273ZM210.864 258.216L214.102 239.125H277.17L273.932 258.216H210.864Z" fill="url(#paint1_linear_1512_96)" fill-opacity="0.55"/>
<defs>
<linearGradient id="paint0_linear_1512_96" x1="295.455" y1="154.687" x2="9.25045" y2="255.353" gradientUnits="userSpaceOnUse">
<stop stop-color="#A80AF2"/>
<stop offset="1" stop-color="#009DFF"/>
</linearGradient>
<linearGradient id="paint1_linear_1512_96" x1="202" y1="267.467" x2="246.266" y2="196.275" gradientUnits="userSpaceOnUse">
<stop stop-color="#7DB1FF"/>
<stop offset="1" stop-color="#FF00E6"/>
</linearGradient>
</defs>
</svg>
